<mxfile host="app.diagrams.net" agent="Mozilla/5.0 (Windows NT 10.0; Win64; x64) AppleWebKit/537.36 (KHTML, like Gecko) Chrome/136.0.0.0 Safari/537.36 Edg/136.0.0.0" version="26.2.15">
  <diagram id="C5RBs43oDa-KdzZeNtuy" name="Page-1">
    <mxGraphModel dx="1653" dy="914" grid="1" gridSize="10" guides="1" tooltips="1" connect="1" arrows="1" fold="1" page="1" pageScale="1" pageWidth="827" pageHeight="1169" math="0" shadow="0">
      <root>
        <mxCell id="WIyWlLk6GJQsqaUBKTNV-0" />
        <mxCell id="WIyWlLk6GJQsqaUBKTNV-1" parent="WIyWlLk6GJQsqaUBKTNV-0" />
        <mxCell id="TLewBJtR_3MGjS_xN2PU-71" value="结果合并" style="whiteSpace=wrap;strokeWidth=2;verticalAlign=top;fontSize=18;" vertex="1" parent="WIyWlLk6GJQsqaUBKTNV-1">
          <mxGeometry x="1152.25" y="360" width="450.5" height="228" as="geometry" />
        </mxCell>
        <mxCell id="TLewBJtR_3MGjS_xN2PU-72" value="处理分支" style="whiteSpace=wrap;strokeWidth=2;verticalAlign=top;fontSize=18;" vertex="1" parent="WIyWlLk6GJQsqaUBKTNV-1">
          <mxGeometry x="620" y="20" width="980" height="300" as="geometry" />
        </mxCell>
        <mxCell id="TLewBJtR_3MGjS_xN2PU-96" style="edgeStyle=orthogonalEdgeStyle;rounded=0;orthogonalLoop=1;jettySize=auto;html=1;exitX=0.5;exitY=0;exitDx=0;exitDy=0;entryX=0.5;entryY=1;entryDx=0;entryDy=0;fontSize=18;" edge="1" parent="WIyWlLk6GJQsqaUBKTNV-1" source="TLewBJtR_3MGjS_xN2PU-73" target="TLewBJtR_3MGjS_xN2PU-74">
          <mxGeometry relative="1" as="geometry" />
        </mxCell>
        <mxCell id="TLewBJtR_3MGjS_xN2PU-73" value="接收图像, 参数, 交互信息 (ROI/文本)" style="whiteSpace=wrap;strokeWidth=2;fontSize=18;" vertex="1" parent="WIyWlLk6GJQsqaUBKTNV-1">
          <mxGeometry x="734" y="510" width="260" height="78" as="geometry" />
        </mxCell>
        <mxCell id="TLewBJtR_3MGjS_xN2PU-105" style="edgeStyle=orthogonalEdgeStyle;rounded=0;orthogonalLoop=1;jettySize=auto;html=1;exitX=0;exitY=0;exitDx=0;exitDy=0;entryX=0.5;entryY=1;entryDx=0;entryDy=0;curved=1;fontSize=18;" edge="1" parent="WIyWlLk6GJQsqaUBKTNV-1" source="TLewBJtR_3MGjS_xN2PU-74">
          <mxGeometry relative="1" as="geometry">
            <mxPoint x="827" y="407.5" as="sourcePoint" />
            <mxPoint x="753" y="294" as="targetPoint" />
          </mxGeometry>
        </mxCell>
        <mxCell id="TLewBJtR_3MGjS_xN2PU-118" value="ROI" style="edgeLabel;html=1;align=center;verticalAlign=middle;resizable=0;points=[];fontSize=18;" vertex="1" connectable="0" parent="TLewBJtR_3MGjS_xN2PU-105">
          <mxGeometry x="0.4724" relative="1" as="geometry">
            <mxPoint as="offset" />
          </mxGeometry>
        </mxCell>
        <mxCell id="TLewBJtR_3MGjS_xN2PU-106" style="edgeStyle=orthogonalEdgeStyle;rounded=0;orthogonalLoop=1;jettySize=auto;html=1;exitX=1;exitY=0;exitDx=0;exitDy=0;curved=1;fontSize=18;" edge="1" parent="WIyWlLk6GJQsqaUBKTNV-1" source="TLewBJtR_3MGjS_xN2PU-74">
          <mxGeometry relative="1" as="geometry">
            <mxPoint x="910" y="407.5" as="sourcePoint" />
            <mxPoint x="966.5000000000005" y="294" as="targetPoint" />
          </mxGeometry>
        </mxCell>
        <mxCell id="TLewBJtR_3MGjS_xN2PU-119" value="文本" style="edgeLabel;html=1;align=center;verticalAlign=middle;resizable=0;points=[];fontSize=18;" vertex="1" connectable="0" parent="TLewBJtR_3MGjS_xN2PU-106">
          <mxGeometry x="0.4274" y="6" relative="1" as="geometry">
            <mxPoint y="-1" as="offset" />
          </mxGeometry>
        </mxCell>
        <mxCell id="TLewBJtR_3MGjS_xN2PU-74" value="交互类型判断" style="rhombus;strokeWidth=2;whiteSpace=wrap;fontSize=18;" vertex="1" parent="WIyWlLk6GJQsqaUBKTNV-1">
          <mxGeometry x="789" y="340" width="150" height="150" as="geometry" />
        </mxCell>
        <mxCell id="TLewBJtR_3MGjS_xN2PU-116" style="edgeStyle=orthogonalEdgeStyle;rounded=0;orthogonalLoop=1;jettySize=auto;html=1;exitX=0.5;exitY=0;exitDx=0;exitDy=0;entryX=0.25;entryY=1;entryDx=0;entryDy=0;curved=1;fontSize=18;" edge="1" parent="WIyWlLk6GJQsqaUBKTNV-1" source="TLewBJtR_3MGjS_xN2PU-75" target="TLewBJtR_3MGjS_xN2PU-77">
          <mxGeometry relative="1" as="geometry">
            <Array as="points">
              <mxPoint x="753" y="201" />
              <mxPoint x="831" y="201" />
            </Array>
          </mxGeometry>
        </mxCell>
        <mxCell id="TLewBJtR_3MGjS_xN2PU-75" value="提取ROI区域" style="whiteSpace=wrap;strokeWidth=2;fontSize=18;" vertex="1" parent="WIyWlLk6GJQsqaUBKTNV-1">
          <mxGeometry x="678" y="240" width="149" height="54" as="geometry" />
        </mxCell>
        <mxCell id="TLewBJtR_3MGjS_xN2PU-76" value="解析文本指令" style="whiteSpace=wrap;strokeWidth=2;fontSize=18;" vertex="1" parent="WIyWlLk6GJQsqaUBKTNV-1">
          <mxGeometry x="880" y="240" width="156" height="54" as="geometry" />
        </mxCell>
        <mxCell id="TLewBJtR_3MGjS_xN2PU-77" value="加载/选择模型" style="rounded=1;arcSize=20;strokeWidth=2;fontSize=18;" vertex="1" parent="WIyWlLk6GJQsqaUBKTNV-1">
          <mxGeometry x="797" y="107" width="134" height="54" as="geometry" />
        </mxCell>
        <mxCell id="TLewBJtR_3MGjS_xN2PU-78" value="图像预处理" style="rounded=1;arcSize=20;strokeWidth=2;fontSize=18;" vertex="1" parent="WIyWlLk6GJQsqaUBKTNV-1">
          <mxGeometry x="981" y="107" width="110" height="54" as="geometry" />
        </mxCell>
        <mxCell id="TLewBJtR_3MGjS_xN2PU-79" value="执行模型推理" style="rounded=1;arcSize=20;strokeWidth=2;fontSize=18;" vertex="1" parent="WIyWlLk6GJQsqaUBKTNV-1">
          <mxGeometry x="1141" y="107" width="126" height="54" as="geometry" />
        </mxCell>
        <mxCell id="TLewBJtR_3MGjS_xN2PU-112" style="edgeStyle=orthogonalEdgeStyle;rounded=0;orthogonalLoop=1;jettySize=auto;html=1;exitX=0.25;exitY=1;exitDx=0;exitDy=0;entryX=0.5;entryY=0;entryDx=0;entryDy=0;elbow=vertical;curved=1;fontSize=18;" edge="1" parent="WIyWlLk6GJQsqaUBKTNV-1" source="TLewBJtR_3MGjS_xN2PU-80" target="TLewBJtR_3MGjS_xN2PU-82">
          <mxGeometry relative="1" as="geometry">
            <Array as="points">
              <mxPoint x="1263" y="161" />
            </Array>
          </mxGeometry>
        </mxCell>
        <mxCell id="TLewBJtR_3MGjS_xN2PU-121" value="文本" style="edgeLabel;html=1;align=center;verticalAlign=middle;resizable=0;points=[];fontSize=18;" vertex="1" connectable="0" parent="TLewBJtR_3MGjS_xN2PU-112">
          <mxGeometry x="0.2463" y="-1" relative="1" as="geometry">
            <mxPoint y="1" as="offset" />
          </mxGeometry>
        </mxCell>
        <mxCell id="TLewBJtR_3MGjS_xN2PU-115" style="edgeStyle=orthogonalEdgeStyle;rounded=0;orthogonalLoop=1;jettySize=auto;html=1;exitX=0.75;exitY=1;exitDx=0;exitDy=0;entryX=0.5;entryY=0;entryDx=0;entryDy=0;curved=1;fontSize=18;" edge="1" parent="WIyWlLk6GJQsqaUBKTNV-1" source="TLewBJtR_3MGjS_xN2PU-80" target="TLewBJtR_3MGjS_xN2PU-81">
          <mxGeometry relative="1" as="geometry">
            <Array as="points">
              <mxPoint x="1484" y="161" />
            </Array>
          </mxGeometry>
        </mxCell>
        <mxCell id="TLewBJtR_3MGjS_xN2PU-120" value="ROI" style="edgeLabel;html=1;align=center;verticalAlign=middle;resizable=0;points=[];fontSize=18;" vertex="1" connectable="0" parent="TLewBJtR_3MGjS_xN2PU-115">
          <mxGeometry x="0.2264" y="1" relative="1" as="geometry">
            <mxPoint as="offset" />
          </mxGeometry>
        </mxCell>
        <mxCell id="TLewBJtR_3MGjS_xN2PU-80" value="图像后处理" style="rounded=1;arcSize=20;strokeWidth=2;fontSize=18;" vertex="1" parent="WIyWlLk6GJQsqaUBKTNV-1">
          <mxGeometry x="1317" y="107" width="110" height="54" as="geometry" />
        </mxCell>
        <mxCell id="TLewBJtR_3MGjS_xN2PU-81" value="拼接/返回ROI结果" style="whiteSpace=wrap;strokeWidth=2;fontSize=18;" vertex="1" parent="WIyWlLk6GJQsqaUBKTNV-1">
          <mxGeometry x="1389.5" y="410" width="189" height="54" as="geometry" />
        </mxCell>
        <mxCell id="TLewBJtR_3MGjS_xN2PU-82" value="返回符合意图结果" style="whiteSpace=wrap;strokeWidth=2;fontSize=18;" vertex="1" parent="WIyWlLk6GJQsqaUBKTNV-1">
          <mxGeometry x="1168.5" y="410" width="188" height="54" as="geometry" />
        </mxCell>
        <mxCell id="TLewBJtR_3MGjS_xN2PU-83" value="返回最终结果" style="whiteSpace=wrap;strokeWidth=2;fontSize=18;" vertex="1" parent="WIyWlLk6GJQsqaUBKTNV-1">
          <mxGeometry x="1299.5" y="510" width="156" height="54" as="geometry" />
        </mxCell>
        <mxCell id="TLewBJtR_3MGjS_xN2PU-89" value="" style="curved=1;startArrow=none;endArrow=block;exitX=1;exitY=0.5;entryX=0;entryY=0.5;rounded=0;fontSize=18;" edge="1" parent="WIyWlLk6GJQsqaUBKTNV-1" source="TLewBJtR_3MGjS_xN2PU-77" target="TLewBJtR_3MGjS_xN2PU-78">
          <mxGeometry relative="1" as="geometry">
            <Array as="points" />
          </mxGeometry>
        </mxCell>
        <mxCell id="TLewBJtR_3MGjS_xN2PU-90" value="" style="curved=1;startArrow=none;endArrow=block;exitX=1;exitY=0.5;entryX=0;entryY=0.5;rounded=0;fontSize=18;" edge="1" parent="WIyWlLk6GJQsqaUBKTNV-1" source="TLewBJtR_3MGjS_xN2PU-78" target="TLewBJtR_3MGjS_xN2PU-79">
          <mxGeometry relative="1" as="geometry">
            <Array as="points" />
          </mxGeometry>
        </mxCell>
        <mxCell id="TLewBJtR_3MGjS_xN2PU-91" value="" style="curved=1;startArrow=none;endArrow=block;exitX=1;exitY=0.5;entryX=0;entryY=0.5;rounded=0;fontSize=18;" edge="1" parent="WIyWlLk6GJQsqaUBKTNV-1" source="TLewBJtR_3MGjS_xN2PU-79" target="TLewBJtR_3MGjS_xN2PU-80">
          <mxGeometry relative="1" as="geometry">
            <Array as="points" />
          </mxGeometry>
        </mxCell>
        <mxCell id="TLewBJtR_3MGjS_xN2PU-117" style="edgeStyle=orthogonalEdgeStyle;rounded=0;orthogonalLoop=1;jettySize=auto;html=1;exitX=0.5;exitY=0;exitDx=0;exitDy=0;entryX=0.682;entryY=0.987;entryDx=0;entryDy=0;entryPerimeter=0;curved=1;fontSize=18;" edge="1" parent="WIyWlLk6GJQsqaUBKTNV-1" source="TLewBJtR_3MGjS_xN2PU-76" target="TLewBJtR_3MGjS_xN2PU-77">
          <mxGeometry relative="1" as="geometry" />
        </mxCell>
      </root>
    </mxGraphModel>
  </diagram>
</mxfile>
